<?xml version="1.0" encoding="UTF-8" standalone="no"?>
<!-- Created with Inkscape (http://www.inkscape.org/) -->

<svg
   width="300"
   height="300"
   viewBox="0 0 79.374996 79.375002"
   version="1.1"
   id="svg5"
   sodipodi:docname="Logo3.svg"
   inkscape:version="1.1.2 (b8e25be833, 2022-02-05)"
   xmlns:inkscape="http://www.inkscape.org/namespaces/inkscape"
   xmlns:sodipodi="http://sodipodi.sourceforge.net/DTD/sodipodi-0.dtd"
   xmlns="http://www.w3.org/2000/svg"
   xmlns:svg="http://www.w3.org/2000/svg">
  <sodipodi:namedview
     id="namedview7"
     pagecolor="#00248e"
     bordercolor="#666666"
     borderopacity="1.0"
     inkscape:pageshadow="2"
     inkscape:pageopacity="0"
     inkscape:pagecheckerboard="0"
     inkscape:document-units="mm"
     showgrid="false"
     units="px"
     width="500px"
     inkscape:zoom="2.0938813"
     inkscape:cx="134.91691"
     inkscape:cy="135.63329"
     inkscape:window-width="1920"
     inkscape:window-height="1017"
     inkscape:window-x="-8"
     inkscape:window-y="-8"
     inkscape:window-maximized="1"
     inkscape:current-layer="layer1" />
  <defs
     id="defs2" />
  <g
     inkscape:label="Capa 1"
     inkscape:groupmode="layer"
     id="layer1">
    <path
       id="path548"
       style="fill:#ffffff;stroke:none;stroke-width:0.299771"
       d="M 42.711545,0 C 41.970134,1.2113434 41.351159,3.0101003 40.183464,3.8240658 38.779496,4.8024858 36.467606,4.5598248 34.855298,4.745897 31.893142,5.0877457 28.895657,5.7598326 26.126133,6.9417128 15.309609,11.557773 6.3695525,21.876856 4.3027354,34.280911 c -2.8568301,0.436686 -5.5302349,3.319241 -3.70434951,6.455458 0.77836501,1.336632 2.35799161,1.994021 2.88930371,3.496195 1.4156084,4.001886 1.3245915,8.498542 2.9167956,12.593073 0.9491699,2.440413 3.6262288,5.421437 3.7641538,8.029855 0.158291,3.002776 -2.9219912,6.724629 -3.8292606,9.573632 4.5552606,0.234404 9.4712506,-0.717668 13.9671496,0.150463 2.800662,0.540468 5.411576,2.423606 8.14706,3.310883 4.1153,1.334782 8.241734,1.537003 12.512125,1.47462 3.577977,-0.05221 6.624116,-1.276363 9.696607,-2.489893 -8.816203,3.356767 -20.104671,3.43893 -27.737042,-2.13722 5.931849,-1.202291 12.373084,-0.07775 18.331729,0.266628 4.424901,0.255716 8.939002,-0.333026 13.384561,-0.266628 v 0.308864 c -1.082692,0.595711 -2.232057,1.134554 -3.428972,1.614529 1.856742,-0.728907 3.734069,-1.430218 5.756909,-1.841556 7.113535,-1.446268 15.179058,-0.39069 22.405495,-0.39069 -1.685053,-4.010223 -3.749539,-7.814076 -5.601607,-11.735658 -0.778953,-1.64949 -2.193612,-3.658734 -2.204961,-5.558965 -0.02557,-4.332031 2.718271,-9.063775 3.070641,-13.588822 0.487385,-6.259162 -1.623998,-11.085781 -2.789955,-16.985761 -0.369245,-1.867833 0.973808,-3.688149 0.03714,-5.489275 -1.112132,-2.138064 -3.74366,-1.462762 -5.354222,-2.947641 C 63.264664,15.11109 60.464022,11.889175 56.67869,9.544591 55.26562,8.6693861 53.639373,8.0783796 52.005933,7.5103333 53.550044,8.2043557 54.981778,9.1018035 56.096585,10.191351 53.15509,8.886924 47.881152,8.5568829 45.912396,5.8678271 46.992332,5.9752904 48.151186,6.1983484 49.311948,6.5304257 48.123616,6.0625162 46.989121,5.5338505 46.008856,4.8192842 44.472784,3.6996651 43.86469,1.5035619 42.711545,0 Z m 6.600407,6.5304257 c 0.87913,0.3461591 1.784242,0.6635345 2.693985,0.9799076 C 51.131622,7.1173598 50.221205,6.7905493 49.311952,6.5304257 Z M 43.002839,1.5443034 44.45738,4.6323844 41.257007,4.3235237 Z M 40.092798,4.9412451 39.51069,6.4855495 c 1.869244,-1.4254893 4.716798,-2.1427375 5.819606,0.6177214 -16.860129,0 -32.297568,11.1426281 -34.221223,29.9568621 -0.693109,6.779851 0.907324,12.487728 2.795743,18.838923 h 0.582107 c 0.119302,-3.514228 -1.674577,-7.008218 -2.139852,-10.500215 -1.020752,-7.662499 0.740465,-16.169247 4.919199,-22.536806 0.969246,-1.477466 2.311411,-2.146248 3.396175,-3.412779 4.898902,-5.719036 10.140625,-9.6692785 17.684517,-10.7245981 2.222491,-0.310904 5.625575,-1.0717299 7.672023,0.2249145 2.36565,1.4988066 4.165035,6.8720726 4.840104,9.5804926 L 48.822445,20.38323 51.1499,18.838925 h 0.291294 l 1.163728,2.470887 -2.327937,2.161497 2.037126,-1.852637 c 1.880882,1.894393 3.184016,5.376137 3.768009,8.029325 0.404457,1.838187 0.310428,3.430827 -1.731366,3.397469 v 0.308864 c 3.174861,2.308228 -5.712632,1.852631 -6.983332,1.852631 v 0.308864 l 2.32794,0.617717 v 0.617727 l -5.819605,0.617718 v 0.308863 c 2.33597,1.791555 2.356554,6.399 2.327456,9.2653 2.878643,-0.728856 5.069028,-2.06374 6.401709,-4.941779 l 1.745832,-0.926581 c -2.479712,0.02227 -4.210644,0.663223 -6.401709,1.853172 1.937623,-3.621402 4.861629,-1.658563 7.312243,-3.760187 3.05556,-2.620463 0.964127,-8.838628 5.494069,-10.391452 1.162168,-0.398369 2.565045,0.295956 3.779585,0.253953 -2.958953,-2.15876 -4.817127,-0.150248 -7.274143,1.853167 -0.31833,-2.419722 0.322661,-3.985481 1.745832,-5.867829 L 56.096589,27.4865 54.641568,21.309812 H 54.350754 L 54.059945,22.235867 47.367422,8.956435 47.658234,8.6475743 c 5.450014,1.5901907 10.396351,3.4857217 14.839581,7.3445517 2.123266,1.843837 4.139115,3.769715 3.782962,6.861462 -1.243934,0.350219 -1.793388,0.797284 -2.036645,2.162026 l 1.745832,-1.853165 h 0.290813 c 1.099895,1.592661 2.756909,2.178998 3.898705,3.614464 2.1899,2.752954 2.818085,7.74066 3.084623,11.209801 l -2.327452,0.926581 2.327452,0.308854 v 3.705813 l -2.327452,1.235435 h 2.327452 c -0.393405,3.876811 -1.211117,7.639841 -2.909559,11.117942 h -0.29081 l -2.910044,-4.323531 c 0.828123,1.578464 2.362178,3.676931 2.258008,5.558966 -0.100967,1.819354 -1.65291,3.590711 -2.672762,4.941247 -2.853912,3.778905 -6.611847,7.241477 -10.933161,8.956436 -1.881755,-5.927464 -1.386402,-10.492642 1.163728,-16.059709 l 1.164212,0.308864 c 0.432974,-1.389136 1.37951,-2.83472 1.464182,-4.306622 0.07217,-1.252642 -0.83056,-2.209424 -0.884972,-3.431791 -0.141999,-3.168645 3.369504,-2.653341 5.23991,-2.144075 V 44.47226 c -5.716259,-2.226391 -11.454461,3.559499 -17.16752,4.632384 l 0.582105,2.470892 -2.910042,0.617717 4.07377,1.852641 -6.983333,1.853162 v 0.308864 h 6.983333 c -1.433065,1.915086 -3.385838,1.847911 -5.528311,1.853162 v 0.308864 c 2.048777,0.538915 5.801024,2.223081 2.036646,3.705803 2.05634,3.086492 4.070644,1.587791 6.983332,0.926581 -0.59214,1.58586 -1.344101,2.357258 -2.90956,2.779743 v 0.308333 l 2.90956,-0.308333 -2.90956,1.543777 v 0.308864 h 2.618748 v 0.308854 l -2.618748,0.617727 v 0.308864 h 3.200854 v 0.308853 l -3.200854,0.617728 v 0.617717 h 3.200854 v 0.308864 l -3.491666,0.308853 v 0.308864 h 4.364581 v 0.308864 c -1.876223,0.395308 -8.472476,3.509385 -9.83309,1.222776 -0.932584,-1.567337 -0.275468,-5.72036 -0.642391,-7.708322 l 2.32794,-0.308864 c -1.204648,-0.803285 -2.849884,-1.491958 -3.731839,-2.712169 -1.660612,-2.298349 -0.62241,-7.227234 0.888348,-9.28747 1.318421,-1.798349 3.904214,-2.833483 4.007219,-5.295507 L 39.801985,51.88439 35.146108,45.398841 V 47.8692 c -2.911815,-1.85918 -5.560865,-4.602776 -7.274143,-7.72046 l -0.446103,6.485546 -3.336856,6.485548 c 4.648079,1.07969 2.735076,8.201977 5.50082,11.173898 1.90707,2.049427 6.040234,1.020136 6.799105,-1.61082 1.564588,-5.42346 -1.374468,-8.979771 -1.533633,-14.195985 4.850601,3.732267 4.160191,12.44964 1.93392,17.603479 -0.801063,1.854868 -1.994984,4.463878 -3.976835,5.133425 C 31.070299,71.812471 29.019847,70.2765 27.58067,69.412374 22.917751,66.612483 18.883855,62.390273 16.232755,57.443365 h -0.290812 c -0.216464,2.23812 1.342368,3.940227 2.629361,5.557902 2.07991,2.613986 4.532996,4.924677 7.263534,6.751122 1.735393,1.160913 3.808215,1.843681 5.2375,3.44129 -6.022369,1.510205 -11.116312,0.794366 -15.712015,-3.753852 -1.271284,-1.258494 -3.54173,-3.110931 -3.280431,-5.202052 0.25868,-2.071669 1.907525,-4.352097 2.823232,-6.176693 2.15149,-4.287557 4.67536,-8.730512 6.276319,-13.279958 -4.409187,5.071994 -6.747905,13.123028 -9.893374,19.147787 H 10.703962 C 6.6599506,57.743565 4.1790442,50.491637 4.0114414,42.927962 6.3474137,42.183975 8.6163231,39.864315 7.4105101,37.080189 6.8340815,35.748502 5.3140369,34.833568 5.1973526,33.302061 4.9866865,30.538296 7.001494,26.763259 8.1758795,24.397892 14.479915,11.700488 26.883275,4.9419858 40.092798,4.9412451 Z M 37.764858,9.5736292 36.60113,12.662238 38.637776,9.5736292 Z M 45.9124,13.279959 v 2.779219 l 0.582107,-2.779219 z m -4.946687,0.308861 v 1.544304 l 0.872917,-0.617722 v -0.308861 z m -5.239429,0.494705 c -0.110365,0.0077 -0.226096,0.04209 -0.344343,0.109817 -0.920655,0.527182 -0.18247,2.095255 0.770191,1.570174 0.84911,-0.467904 0.346712,-1.733797 -0.425848,-1.679991 z m 20.370305,0.431877 -0.872917,2.77922 c 0.956736,-0.835705 1.301235,-1.506852 0.872917,-2.77922 z m -4.111872,0.564397 0.388713,0.663127 z m -20.621087,0.362186 0.290813,3.08808 c 0.376234,-1.249238 0.386585,-1.975965 -0.290813,-3.08808 z m -3.78296,0.308332 2.327938,1.853165 z m 21.532587,0 c -1.264009,0.323041 -1.732766,0.820447 -2.037127,2.162026 z m -4.655877,0.308861 c -0.382345,1.330771 -0.250676,2.014789 0.582105,3.088608 z m -4.94669,0.617721 c -0.376231,1.249237 -0.386101,1.976494 0.291295,3.088609 z m 20.014868,0.189013 c -0.09147,0.0097 -0.186863,0.04207 -0.283575,0.101371 -0.773711,0.474062 -0.08116,1.7473 0.692543,1.272928 0.676996,-0.414799 0.231332,-1.441885 -0.408968,-1.374299 z m -26.416093,0.42871 -0.290813,2.779747 h 0.581624 l 0.291294,-2.779747 z m 10.184188,0 -2.036646,2.162025 z m 10.474997,0 c -0.510667,1.214649 -0.733697,2.225081 0.582104,2.779747 v -2.779747 z m 4.073772,0.30886 c -1.222688,0.41075 -1.838221,0.891171 -2.327939,2.162026 1.255279,-0.360718 1.793412,-0.910628 2.327939,-2.162026 z m -20.950479,0.308861 c -0.332587,1.232252 -0.310033,1.881039 0.582105,2.779747 v -2.779747 z m -6.692522,0.308861 c 2.07118,4.160624 4.082226,7.165235 3.200855,12.044515 l 1.455022,-0.617722 -1.745833,8.029853 2.90956,-1.544308 v 0.926591 c 3.507446,-1.129721 7.285074,-1.338328 9.893375,-4.323525 l -5.528792,2.470353 c 0.67827,-4.878044 4.3327,-4.416944 7.856731,-6.176685 L 41.83863,27.4865 c 1.756925,-2.163694 3.877186,-2.723901 6.401709,-3.397468 v -0.308861 l -4.073772,0.308861 1.745833,-5.558967 h -0.29081 c -1.231417,5.86076 -5.96998,8.183037 -10.475482,10.809073 0.05732,-3.669281 1.45759,-6.274269 4.073772,-8.647048 v -0.30886 l -4.655395,4.323523 C 33.519291,22.25275 32.23714,19.886751 30.199421,18.221204 Z m -2.90956,0.308861 c 0.811537,0.941019 1.438275,1.080074 2.618747,0.926582 v -0.617722 z m 21.241289,0.30886 -2.327937,2.162026 c 1.295143,-0.322732 1.850442,-0.844845 2.327937,-2.162026 z m -13.966665,0.617722 -0.291292,2.77922 h 0.582105 z m -12.221314,0.617722 1.163727,2.779219 c 0.105336,-1.324902 0.01647,-2.163402 -1.163727,-2.779219 z m 2.327939,0.308861 1.163728,2.779219 z m 35.49925,0.30886 -0.290811,2.779219 h 0.581623 l 0.291292,-2.779219 z m -19.187767,0.58446 c -0.770432,0.03929 -1.30224,0.337 -1.762713,1.268177 l 2.61875,-1.234915 c -0.316076,-0.0305 -0.599226,-0.04635 -0.856037,-0.03327 z m 8.712769,0.03327 -2.32794,1.852637 c 1.312601,-0.06517 1.794575,-0.610195 2.32794,-1.852637 z m 7.856247,0 c -1.140341,0.428971 -1.590159,0.872421 -1.745832,2.161497 z m 6.110418,0.30886 -2.32794,1.852637 z m -44.519711,0.617195 1.164212,2.779747 c 0.0256,-1.294637 -0.22057,-1.951453 -1.164212,-2.779747 z m 2.327939,0.30886 0.290811,2.779748 h 0.582105 L 22.05236,22.544731 Z m 4.946688,0.617722 -1.745833,5.250105 -2.910044,-2.470358 c 2.164002,2.954625 3.080126,5.234448 3.492149,8.955907 L 23.410927,33.35433 h 0.387266 l -0.582104,-2.470887 v 2.307745 l -3.491668,-2.925469 v 0.308862 c 2.133161,2.213109 2.527575,4.14509 -0.582105,5.250107 v 0.308854 c 4.55584,-0.917233 5.326371,0.148194 8.729649,3.088607 l -1.903539,-8.338706 z m 2.909561,0 -2.327457,1.853165 z m 10.475481,0.30886 -2.61875,0.617723 v 0.30886 c 1.215414,0.445959 2.006242,0.339024 2.61875,-0.926583 z M 23.506898,24.3979 24.089006,26.868787 V 24.3979 Z m 35.499733,0.308861 0.290813,0.308861 z m -40.78546,0.163142 c -0.325984,-0.0174 -0.699437,0.05087 -1.115498,0.145719 L 19.43361,25.9422 c -0.257514,-0.776527 -0.66913,-1.043311 -1.212439,-1.072301 z m 31.474191,0.145719 c 0.405623,1.226693 0.88088,1.731518 2.036643,2.162025 z m -3.492149,0.308861 2.327937,1.853164 c -0.533362,-1.242434 -1.015336,-1.788 -2.327937,-1.853164 z m -19.204166,0.617721 1.454541,2.77922 c 0.05296,-1.41261 -0.281898,-2.097622 -1.454541,-2.77922 z m 3.491668,0.308862 -0.291294,2.779219 h 0.582104 l 0.290813,-2.779219 z m -11.057105,0.30886 c -0.151599,1.335402 -0.0393,2.124826 0.872918,3.088079 z m -3.782959,0.308861 c 0.365177,1.508042 0.952486,2.228875 2.327937,2.779218 z m 46.556354,0.30886 0.291294,0.308861 z m -8.643322,1.026369 c -0.155022,0.01179 -0.317671,0.06125 -0.483239,0.157334 -1.325404,0.768999 -0.246544,2.895038 1.094281,2.172056 1.19079,-0.642041 0.474115,-2.411899 -0.611042,-2.32939 z M 21.470255,28.72142 c -0.299997,1.16863 -0.291577,2.036382 0.872916,2.470884 z m 18.040435,0 h 0.582108 l 0.29081,2.779746 c -0.88661,-0.86134 -1.017531,-1.526803 -0.872918,-2.779746 z m 27.643002,0 c -0.978559,2.716203 2.348773,1.004022 0,0 z m -2.036643,0.926581 -0.582107,2.779749 h 0.582107 z m -35.790545,0.308861 c 0.779822,3.910774 -1.788052,7.382745 1.164211,10.500746 l 2.327937,-9.265304 -2.327937,1.853166 z m -13.384561,0.308861 c 0.851401,0.911374 1.47026,0.944469 2.61875,0.617724 v -0.617724 z m 10.76581,0.617724 c 0.664015,0.791851 1.081823,0.791851 1.745835,0 z M 48.53115,31.1923 c 0.811536,0.941023 1.438254,1.080074 2.61875,0.926584 z m -30.261749,0.617724 c 0.488842,1.475302 1.70275,1.297755 2.61875,0.30886 z m 42.483063,0 2.036645,1.85316 0.290813,-0.308854 c -0.6064,-1.108411 -1.11437,-1.489951 -2.327458,-1.544306 z m -20.368856,0.30886 c -0.371579,2.330778 -1.647282,3.319446 -3.782478,3.705804 z m 26.479273,0.926582 c -1.155764,0.430515 -1.631503,0.934806 -2.037126,2.161495 z m -48.59348,0.617718 1.745833,1.543777 0.291294,-1.234914 z m 42.191771,0.308863 c -0.152765,1.359804 0.02852,2.072302 1.164209,2.779222 z m -44.810521,0.308864 2.327937,1.543777 c -0.5869,-1.114897 -1.130563,-1.45391 -2.327937,-1.543777 z m 48.302186,0 c -1.108918,2.971921 -2.557567,4.852546 -4.946206,6.793879 l -1.164209,-4.632384 h -0.290813 l -4.073769,8.338718 9.602082,-3.732734 5.237982,2.497289 v -0.308863 l -3.200855,-2.779212 3.782478,-1.853173 v -0.308863 l -6.692522,1.544308 c 1.095821,-1.689019 2.017024,-3.4521 1.745832,-5.558965 z M 4.0114414,34.898107 C 2.7125135,38.368168 1.5202636,38.365461 3.7206289,42.001371 -0.97748714,41.771912 0.10855339,35.778897 4.0114414,34.898107 Z m 0.8729171,0 c 3.2734756,2.119535 3.1638187,6.495814 -0.8729171,7.412128 l 1.8427698,-3.431789 z m 62.5606275,0.617718 c -0.93433,0.843426 -1.217461,1.476469 -1.164209,2.779743 z m 3.782478,0 -2.036646,2.162025 z m -57.904753,0.617717 v 0.617727 h 2.619232 v -0.617727 z m 4.94669,0 0.291292,0.308864 z m 2.61875,0.308864 -2.036645,2.162025 c 1.248586,-0.344969 1.86002,-0.764542 2.036645,-2.162025 z m -2.327458,0.617727 -2.327938,1.853162 z m 5.471885,0.461441 c -0.117987,-0.01144 -0.245919,0.0051 -0.381478,0.05486 -1.095821,0.40581 -0.508155,2.205569 0.593196,1.796673 0.952479,-0.353194 0.6142,-1.77152 -0.211718,-1.851578 z m 11.11353,0.156276 c -2.303089,2.212497 -2.682232,4.968292 0,7.103274 l 0.291294,-4.632384 c 2.538201,0.220509 4.620152,0.739052 6.401228,2.779222 -1.74063,-0.927439 -3.881087,-1.849024 -5.528311,-0.308864 l 4.655394,0.926581 -3.491665,0.308864 c 1.603285,1.315636 3.064349,1.040508 4.946687,0.617717 l 0.29081,1.544309 h 0.291294 c -0.02444,-5.433033 -2.729384,-7.030387 -7.565437,-7.103274 z m 33.171796,1.853162 2.327455,1.852641 z m -48.30267,1.235445 c -0.914836,0.05098 -1.115717,0.263941 -1.163728,1.234914 z m 42.483065,1.543778 2.327456,1.853162 z m -11.930022,0.308863 0.290812,1.235445 h -1.745832 z m 17.749627,1.853162 1.745832,2.47089 z m -2.61875,1.853162 c 0.179242,1.380799 0.833742,1.753528 2.036643,2.161505 z m 4.655392,12.353388 h 0.582107 l 7.274145,15.132586 H 57.842422 v -0.308853 c 5.394729,-3.95494 9.333483,-8.768723 12.512124,-14.823733 z m -2.90956,4.32352 c -2.237328,4.074149 -6.086636,8.262368 -10.184187,10.191349 l -0.582105,-1.543777 z m -56.44973,2.779743 8.729165,7.72047 v 0.308853 H 7.5035905 Z m 29.388352,2.779222 0.582105,4.941248 h -2.618751 z" />
    <ellipse
       style="fill:#ffffff;stroke-width:0.370461;fill-opacity:1"
       id="path43"
       cx="69.245407"
       cy="22.744843"
       rx="3.9171674"
       ry="4.0435276" />
    <ellipse
       style="fill:#ffffff;stroke-width:0.264583;fill-opacity:1"
       id="path45"
       cx="3.7908072"
       cy="38.223972"
       rx="2.4008443"
       ry="2.3376644" />
    <ellipse
       style="fill:none;fill-opacity:1;stroke:#ffffff;stroke-width:0.498;stroke-opacity:1;stroke-miterlimit:4;stroke-dasharray:none"
       id="path8189"
       ry="37.159687"
       rx="35.011559"
       cy="42.077957"
       cx="38.666229" />
  </g>
</svg>
